<mxfile host="app.diagrams.net" modified="2024-06-24T13:34:56.218Z" agent="Mozilla/5.0 (Windows NT 10.0; Win64; x64) AppleWebKit/537.36 (KHTML, like Gecko) Chrome/105.0.0.0 Safari/537.36 Edg/105.0.1343.42" etag="QzWSWflv8_9_5Nw-nRH8" version="24.5.5" type="device">
  <diagram id="R2lEEEUBdFMjLlhIrx00" name="Page-1">
    <mxGraphModel dx="768" dy="328" grid="1" gridSize="10" guides="1" tooltips="1" connect="1" arrows="1" fold="1" page="1" pageScale="1" pageWidth="850" pageHeight="1100" math="0" shadow="0" extFonts="Permanent Marker^https://fonts.googleapis.com/css?family=Permanent+Marker">
      <root>
        <mxCell id="0" />
        <mxCell id="1" parent="0" />
        <mxCell id="YXQmfuXjh9My4U98G8Qk-1" value="Livro" style="rounded=1;whiteSpace=wrap;html=1;" parent="1" vertex="1">
          <mxGeometry x="410" y="170" width="120" height="60" as="geometry" />
        </mxCell>
        <mxCell id="YXQmfuXjh9My4U98G8Qk-2" value="Autor" style="rounded=1;whiteSpace=wrap;html=1;" parent="1" vertex="1">
          <mxGeometry x="670" y="170" width="120" height="60" as="geometry" />
        </mxCell>
        <mxCell id="YXQmfuXjh9My4U98G8Qk-3" value="Leitor" style="rounded=1;whiteSpace=wrap;html=1;" parent="1" vertex="1">
          <mxGeometry x="90" y="170" width="120" height="60" as="geometry" />
        </mxCell>
        <mxCell id="p3He_0Xe4My1zkUvpBwa-1" value="" style="ellipse;whiteSpace=wrap;html=1;aspect=fixed;" vertex="1" parent="1">
          <mxGeometry x="420" y="150" width="10" height="10" as="geometry" />
        </mxCell>
        <mxCell id="p3He_0Xe4My1zkUvpBwa-2" value="" style="endArrow=none;html=1;rounded=0;entryX=0.5;entryY=1;entryDx=0;entryDy=0;exitX=0.122;exitY=0.004;exitDx=0;exitDy=0;exitPerimeter=0;" edge="1" parent="1" source="YXQmfuXjh9My4U98G8Qk-1" target="p3He_0Xe4My1zkUvpBwa-1">
          <mxGeometry width="50" height="50" relative="1" as="geometry">
            <mxPoint x="440" y="170" as="sourcePoint" />
            <mxPoint x="490" y="120" as="targetPoint" />
          </mxGeometry>
        </mxCell>
        <mxCell id="p3He_0Xe4My1zkUvpBwa-4" value="titulo" style="text;html=1;align=center;verticalAlign=middle;resizable=0;points=[];autosize=1;strokeColor=none;fillColor=none;" vertex="1" parent="1">
          <mxGeometry x="400" y="130" width="50" height="30" as="geometry" />
        </mxCell>
        <mxCell id="p3He_0Xe4My1zkUvpBwa-9" value="" style="ellipse;whiteSpace=wrap;html=1;aspect=fixed;" vertex="1" parent="1">
          <mxGeometry x="465" y="150" width="10" height="10" as="geometry" />
        </mxCell>
        <mxCell id="p3He_0Xe4My1zkUvpBwa-10" value="" style="endArrow=none;html=1;rounded=0;entryX=0.5;entryY=1;entryDx=0;entryDy=0;exitX=0.122;exitY=0.004;exitDx=0;exitDy=0;exitPerimeter=0;" edge="1" parent="1" target="p3He_0Xe4My1zkUvpBwa-9">
          <mxGeometry width="50" height="50" relative="1" as="geometry">
            <mxPoint x="470" y="170" as="sourcePoint" />
            <mxPoint x="535" y="120" as="targetPoint" />
          </mxGeometry>
        </mxCell>
        <mxCell id="p3He_0Xe4My1zkUvpBwa-11" value="" style="ellipse;whiteSpace=wrap;html=1;aspect=fixed;fillColor=#000000;" vertex="1" parent="1">
          <mxGeometry x="510" y="150" width="10" height="10" as="geometry" />
        </mxCell>
        <mxCell id="p3He_0Xe4My1zkUvpBwa-12" value="" style="endArrow=none;html=1;rounded=0;entryX=0.5;entryY=1;entryDx=0;entryDy=0;exitX=0.122;exitY=0.004;exitDx=0;exitDy=0;exitPerimeter=0;" edge="1" parent="1" target="p3He_0Xe4My1zkUvpBwa-11">
          <mxGeometry width="50" height="50" relative="1" as="geometry">
            <mxPoint x="515" y="170" as="sourcePoint" />
            <mxPoint x="580" y="120" as="targetPoint" />
          </mxGeometry>
        </mxCell>
        <mxCell id="p3He_0Xe4My1zkUvpBwa-13" value="ano" style="text;html=1;align=center;verticalAlign=middle;resizable=0;points=[];autosize=1;strokeColor=none;fillColor=none;" vertex="1" parent="1">
          <mxGeometry x="450" y="130" width="40" height="30" as="geometry" />
        </mxCell>
        <mxCell id="p3He_0Xe4My1zkUvpBwa-14" value="isbn" style="text;html=1;align=center;verticalAlign=middle;resizable=0;points=[];autosize=1;strokeColor=none;fillColor=none;" vertex="1" parent="1">
          <mxGeometry x="490" y="130" width="50" height="30" as="geometry" />
        </mxCell>
        <mxCell id="p3He_0Xe4My1zkUvpBwa-15" value="" style="ellipse;whiteSpace=wrap;html=1;aspect=fixed;" vertex="1" parent="1">
          <mxGeometry x="690" y="150" width="10" height="10" as="geometry" />
        </mxCell>
        <mxCell id="p3He_0Xe4My1zkUvpBwa-16" value="" style="endArrow=none;html=1;rounded=0;entryX=0.5;entryY=1;entryDx=0;entryDy=0;exitX=0.122;exitY=0.004;exitDx=0;exitDy=0;exitPerimeter=0;" edge="1" parent="1" target="p3He_0Xe4My1zkUvpBwa-15">
          <mxGeometry width="50" height="50" relative="1" as="geometry">
            <mxPoint x="695" y="170" as="sourcePoint" />
            <mxPoint x="760" y="120" as="targetPoint" />
          </mxGeometry>
        </mxCell>
        <mxCell id="p3He_0Xe4My1zkUvpBwa-17" value="" style="ellipse;whiteSpace=wrap;html=1;aspect=fixed;" vertex="1" parent="1">
          <mxGeometry x="760" y="150" width="10" height="10" as="geometry" />
        </mxCell>
        <mxCell id="p3He_0Xe4My1zkUvpBwa-18" value="" style="endArrow=none;html=1;rounded=0;entryX=0.5;entryY=1;entryDx=0;entryDy=0;exitX=0.122;exitY=0.004;exitDx=0;exitDy=0;exitPerimeter=0;" edge="1" parent="1" target="p3He_0Xe4My1zkUvpBwa-17">
          <mxGeometry width="50" height="50" relative="1" as="geometry">
            <mxPoint x="765" y="170" as="sourcePoint" />
            <mxPoint x="830" y="120" as="targetPoint" />
          </mxGeometry>
        </mxCell>
        <mxCell id="p3He_0Xe4My1zkUvpBwa-19" value="nome" style="text;html=1;align=center;verticalAlign=middle;resizable=0;points=[];autosize=1;strokeColor=none;fillColor=none;" vertex="1" parent="1">
          <mxGeometry x="670" y="130" width="50" height="30" as="geometry" />
        </mxCell>
        <mxCell id="p3He_0Xe4My1zkUvpBwa-20" value="nacionalidade" style="text;html=1;align=center;verticalAlign=middle;resizable=0;points=[];autosize=1;strokeColor=none;fillColor=none;" vertex="1" parent="1">
          <mxGeometry x="715" y="130" width="100" height="30" as="geometry" />
        </mxCell>
        <mxCell id="p3He_0Xe4My1zkUvpBwa-25" value="" style="ellipse;whiteSpace=wrap;html=1;aspect=fixed;" vertex="1" parent="1">
          <mxGeometry x="110" y="150" width="10" height="10" as="geometry" />
        </mxCell>
        <mxCell id="p3He_0Xe4My1zkUvpBwa-26" value="" style="endArrow=none;html=1;rounded=0;entryX=0.5;entryY=1;entryDx=0;entryDy=0;exitX=0.122;exitY=0.004;exitDx=0;exitDy=0;exitPerimeter=0;" edge="1" parent="1" target="p3He_0Xe4My1zkUvpBwa-25">
          <mxGeometry width="50" height="50" relative="1" as="geometry">
            <mxPoint x="115" y="170" as="sourcePoint" />
            <mxPoint x="180" y="120" as="targetPoint" />
          </mxGeometry>
        </mxCell>
        <mxCell id="p3He_0Xe4My1zkUvpBwa-27" value="" style="ellipse;whiteSpace=wrap;html=1;aspect=fixed;fillColor=#000000;" vertex="1" parent="1">
          <mxGeometry x="180" y="150" width="10" height="10" as="geometry" />
        </mxCell>
        <mxCell id="p3He_0Xe4My1zkUvpBwa-28" value="" style="endArrow=none;html=1;rounded=0;entryX=0.5;entryY=1;entryDx=0;entryDy=0;exitX=0.122;exitY=0.004;exitDx=0;exitDy=0;exitPerimeter=0;" edge="1" parent="1" target="p3He_0Xe4My1zkUvpBwa-27">
          <mxGeometry width="50" height="50" relative="1" as="geometry">
            <mxPoint x="185" y="170" as="sourcePoint" />
            <mxPoint x="250" y="120" as="targetPoint" />
          </mxGeometry>
        </mxCell>
        <mxCell id="p3He_0Xe4My1zkUvpBwa-29" value="nome" style="text;html=1;align=center;verticalAlign=middle;resizable=0;points=[];autosize=1;strokeColor=none;fillColor=none;" vertex="1" parent="1">
          <mxGeometry x="90" y="130" width="50" height="30" as="geometry" />
        </mxCell>
        <mxCell id="p3He_0Xe4My1zkUvpBwa-30" value="cpf" style="text;html=1;align=center;verticalAlign=middle;resizable=0;points=[];autosize=1;strokeColor=none;fillColor=none;" vertex="1" parent="1">
          <mxGeometry x="165" y="130" width="40" height="30" as="geometry" />
        </mxCell>
        <mxCell id="p3He_0Xe4My1zkUvpBwa-31" value="" style="endArrow=none;html=1;rounded=0;" edge="1" parent="1" target="YXQmfuXjh9My4U98G8Qk-2">
          <mxGeometry width="50" height="50" relative="1" as="geometry">
            <mxPoint x="530" y="200" as="sourcePoint" />
            <mxPoint x="580" y="150" as="targetPoint" />
          </mxGeometry>
        </mxCell>
        <mxCell id="p3He_0Xe4My1zkUvpBwa-32" value="Tem" style="rhombus;whiteSpace=wrap;html=1;" vertex="1" parent="1">
          <mxGeometry x="580" y="180" width="40" height="40" as="geometry" />
        </mxCell>
        <mxCell id="p3He_0Xe4My1zkUvpBwa-33" value="1" style="text;html=1;align=center;verticalAlign=middle;resizable=0;points=[];autosize=1;strokeColor=none;fillColor=none;" vertex="1" parent="1">
          <mxGeometry x="640" y="200" width="30" height="30" as="geometry" />
        </mxCell>
        <mxCell id="p3He_0Xe4My1zkUvpBwa-34" value="n" style="text;html=1;align=center;verticalAlign=middle;resizable=0;points=[];autosize=1;strokeColor=none;fillColor=none;" vertex="1" parent="1">
          <mxGeometry x="530" y="200" width="30" height="30" as="geometry" />
        </mxCell>
        <mxCell id="p3He_0Xe4My1zkUvpBwa-35" value="" style="endArrow=none;html=1;rounded=0;" edge="1" parent="1" target="YXQmfuXjh9My4U98G8Qk-1">
          <mxGeometry width="50" height="50" relative="1" as="geometry">
            <mxPoint x="210" y="200" as="sourcePoint" />
            <mxPoint x="260" y="150" as="targetPoint" />
          </mxGeometry>
        </mxCell>
        <mxCell id="p3He_0Xe4My1zkUvpBwa-36" value="n" style="text;html=1;align=center;verticalAlign=middle;resizable=0;points=[];autosize=1;strokeColor=none;fillColor=none;" vertex="1" parent="1">
          <mxGeometry x="380" y="200" width="30" height="30" as="geometry" />
        </mxCell>
        <mxCell id="p3He_0Xe4My1zkUvpBwa-37" value="n" style="text;html=1;align=center;verticalAlign=middle;resizable=0;points=[];autosize=1;strokeColor=none;fillColor=none;" vertex="1" parent="1">
          <mxGeometry x="205" y="200" width="30" height="30" as="geometry" />
        </mxCell>
        <mxCell id="p3He_0Xe4My1zkUvpBwa-38" value="Empréstimo" style="rhombus;whiteSpace=wrap;html=1;" vertex="1" parent="1">
          <mxGeometry x="240" y="150" width="120" height="100" as="geometry" />
        </mxCell>
        <mxCell id="p3He_0Xe4My1zkUvpBwa-39" value="" style="ellipse;whiteSpace=wrap;html=1;aspect=fixed;" vertex="1" parent="1">
          <mxGeometry x="260" y="160" width="10" height="10" as="geometry" />
        </mxCell>
        <mxCell id="p3He_0Xe4My1zkUvpBwa-40" value="" style="endArrow=none;html=1;rounded=0;entryX=0.5;entryY=1;entryDx=0;entryDy=0;exitX=0.122;exitY=0.004;exitDx=0;exitDy=0;exitPerimeter=0;" edge="1" parent="1" target="p3He_0Xe4My1zkUvpBwa-39">
          <mxGeometry width="50" height="50" relative="1" as="geometry">
            <mxPoint x="265" y="180" as="sourcePoint" />
            <mxPoint x="330" y="130" as="targetPoint" />
          </mxGeometry>
        </mxCell>
        <mxCell id="p3He_0Xe4My1zkUvpBwa-43" value="" style="ellipse;whiteSpace=wrap;html=1;aspect=fixed;" vertex="1" parent="1">
          <mxGeometry x="330" y="160" width="10" height="10" as="geometry" />
        </mxCell>
        <mxCell id="p3He_0Xe4My1zkUvpBwa-44" value="" style="endArrow=none;html=1;rounded=0;entryX=0.5;entryY=1;entryDx=0;entryDy=0;exitX=0.122;exitY=0.004;exitDx=0;exitDy=0;exitPerimeter=0;" edge="1" parent="1" target="p3He_0Xe4My1zkUvpBwa-43">
          <mxGeometry width="50" height="50" relative="1" as="geometry">
            <mxPoint x="335" y="180" as="sourcePoint" />
            <mxPoint x="400" y="130" as="targetPoint" />
          </mxGeometry>
        </mxCell>
        <mxCell id="p3He_0Xe4My1zkUvpBwa-45" value="data&lt;div&gt;Emprestimo&lt;/div&gt;" style="text;html=1;align=center;verticalAlign=middle;resizable=0;points=[];autosize=1;strokeColor=none;fillColor=none;" vertex="1" parent="1">
          <mxGeometry x="205" y="125" width="90" height="40" as="geometry" />
        </mxCell>
        <mxCell id="p3He_0Xe4My1zkUvpBwa-46" value="data&lt;div&gt;Devolução&lt;/div&gt;" style="text;html=1;align=center;verticalAlign=middle;resizable=0;points=[];autosize=1;strokeColor=none;fillColor=none;" vertex="1" parent="1">
          <mxGeometry x="310" y="125" width="80" height="40" as="geometry" />
        </mxCell>
      </root>
    </mxGraphModel>
  </diagram>
</mxfile>
